<svg id="svg" version="1.1" xmlns="http://www.w3.org/2000/svg" xmlns:xlink="http://www.w3.org/1999/xlink" width="400" height="504.9962714392244" viewBox="0, 0, 400,504.9962714392244"><g id="svgg"><path id="path0" d="M161.820 3.281 C 162.627 4.101,163.356 4.773,163.438 4.773 C 163.520 4.773,162.926 4.101,162.118 3.281 C 161.310 2.461,160.582 1.790,160.500 1.790 C 160.418 1.790,161.012 2.461,161.820 3.281 M310.067 95.153 C 310.708 95.809,311.299 96.346,311.381 96.346 C 311.463 96.346,311.006 95.809,310.365 95.153 C 309.725 94.497,309.133 93.960,309.051 93.960 C 308.969 93.960,309.426 94.497,310.067 95.153 M313.050 98.136 C 313.691 98.792,314.282 99.329,314.364 99.329 C 314.446 99.329,313.989 98.792,313.348 98.136 C 312.707 97.479,312.116 96.943,312.034 96.943 C 311.952 96.943,312.409 97.479,313.050 98.136 M271.721 191.723 L 270.694 192.841 271.812 191.813 C 272.853 190.856,273.068 190.604,272.840 190.604 C 272.790 190.604,272.287 191.107,271.721 191.723 M268.288 195.153 L 267.412 196.122 268.382 195.246 C 268.915 194.764,269.351 194.328,269.351 194.277 C 269.351 194.046,269.105 194.249,268.288 195.153 M35.185 437.658 C 35.917 438.438,36.554 439.075,36.602 439.075 C 36.826 439.075,36.589 438.808,35.272 437.571 L 33.855 436.242 35.185 437.658 M38.466 440.940 C 39.702 442.257,39.970 442.493,39.970 442.269 C 39.970 442.222,39.333 441.584,38.553 440.853 L 37.136 439.523 38.466 440.940 " stroke="none" fill="#d11717" fill-rule="evenodd"></path><path id="path1" d="" stroke="none" fill="#ce0c3d" fill-rule="evenodd"></path><path id="path2" d="" stroke="none" fill="#d52040" fill-rule="evenodd"></path><path id="path3" d="M161.956 3.057 C 163.192 4.374,163.460 4.611,163.460 4.387 C 163.460 4.339,162.823 3.702,162.043 2.970 L 160.626 1.641 161.956 3.057 M311.260 96.644 C 312.730 98.121,313.999 99.329,314.082 99.329 C 314.164 99.329,313.028 98.121,311.559 96.644 C 310.089 95.168,308.819 93.960,308.737 93.960 C 308.655 93.960,309.791 95.168,311.260 96.644 M271.868 191.872 L 270.992 192.841 271.961 191.965 C 272.865 191.148,273.068 190.902,272.837 190.902 C 272.786 190.902,272.350 191.339,271.868 191.872 M268.440 195.302 L 267.412 196.421 268.531 195.393 C 269.572 194.436,269.787 194.183,269.559 194.183 C 269.509 194.183,269.006 194.687,268.440 195.302 M35.483 437.658 C 36.215 438.438,36.852 439.075,36.900 439.075 C 37.124 439.075,36.887 438.808,35.570 437.571 L 34.154 436.242 35.483 437.658 M38.628 440.865 C 39.269 441.521,39.860 442.058,39.942 442.058 C 40.024 442.058,39.567 441.521,38.926 440.865 C 38.285 440.209,37.694 439.672,37.612 439.672 C 37.530 439.672,37.987 440.209,38.628 440.865 " stroke="none" fill="#d81f3d" fill-rule="evenodd"></path><path id="path4" d="M162.348 67.711 C 162.348 68.449,162.406 68.751,162.477 68.382 C 162.549 68.013,162.549 67.409,162.477 67.040 C 162.406 66.670,162.348 66.972,162.348 67.711 M162.348 71.290 C 162.348 72.028,162.406 72.330,162.477 71.961 C 162.549 71.592,162.549 70.988,162.477 70.619 C 162.406 70.250,162.348 70.552,162.348 71.290 M193.374 74.124 C 193.376 74.944,193.434 75.244,193.503 74.791 C 193.571 74.337,193.569 73.666,193.499 73.299 C 193.428 72.933,193.372 73.304,193.374 74.124 M252.126 109.620 C 252.129 110.276,252.190 110.509,252.262 110.138 C 252.333 109.767,252.330 109.230,252.256 108.945 C 252.181 108.660,252.123 108.963,252.126 109.620 M343.998 166.592 C 344.001 167.248,344.062 167.482,344.133 167.111 C 344.205 166.740,344.202 166.203,344.127 165.917 C 344.053 165.632,343.994 165.936,343.998 166.592 M343.998 173.751 C 344.001 174.407,344.062 174.640,344.133 174.269 C 344.205 173.898,344.202 173.361,344.127 173.076 C 344.053 172.791,343.994 173.095,343.998 173.751 M51.977 200.298 C 51.980 200.955,52.041 201.188,52.113 200.817 C 52.184 200.446,52.181 199.909,52.107 199.624 C 52.032 199.338,51.973 199.642,51.977 200.298 M51.977 204.773 C 51.980 205.429,52.041 205.662,52.113 205.291 C 52.184 204.920,52.181 204.383,52.107 204.098 C 52.032 203.813,51.973 204.116,51.977 204.773 M364.308 209.545 C 364.309 210.858,364.362 211.357,364.425 210.656 C 364.488 209.954,364.487 208.880,364.423 208.270 C 364.359 207.659,364.307 208.233,364.308 209.545 M313.865 275.317 C 313.865 275.891,313.926 276.126,314.001 275.839 C 314.076 275.552,314.076 275.082,314.001 274.795 C 313.926 274.508,313.865 274.743,313.865 275.317 M399.771 310.813 C 399.771 311.387,399.832 311.622,399.907 311.335 C 399.982 311.048,399.982 310.578,399.907 310.291 C 399.832 310.004,399.771 310.239,399.771 310.813 " stroke="none" fill="#db1e37" fill-rule="evenodd"></path><path id="path5" d="" stroke="none" fill="#d91d3e" fill-rule="evenodd"></path><path id="path6" d="M162.291 3.207 C 197.334 39.009,203.027 81.509,179.265 129.903 C 167.309 154.252,151.755 174.530,126.643 198.512 C 116.424 208.270,110.434 215.822,105.469 225.205 L 103.654 228.635 103.449 225.652 C 101.029 190.449,76.247 162.777,39.889 154.681 L 39.062 154.497 40.405 157.172 C 53.219 182.685,55.625 208.042,47.228 229.083 C 44.175 236.733,40.629 243.022,32.514 255.183 C 10.251 288.542,1.854 313.625,0.249 351.565 C -0.792 376.148,4.491 395.191,18.104 415.931 C 54.859 471.926,144.252 511.384,217.493 503.940 C 293.492 496.216,358.668 454.278,385.333 395.943 C 398.548 367.034,402.263 338.443,398.642 293.512 C 395.400 253.280,385.603 223.012,370.947 207.949 C 368.744 205.685,364.974 202.536,364.466 202.535 C 364.405 202.535,364.352 205.522,364.347 209.172 C 364.327 226.615,357.855 237.644,340.281 250.182 C 331.636 256.349,324.915 264.761,316.544 279.890 C 315.560 281.667,314.687 283.009,314.603 282.873 C 314.045 281.965,313.729 278.478,313.885 274.929 C 314.234 266.966,316.363 260.349,325.292 239.477 C 343.766 196.289,347.611 174.121,341.247 147.491 C 333.621 115.581,306.742 85.389,269.245 66.614 L 264.216 64.096 266.335 66.501 C 311.529 117.788,307.095 167.809,253.813 207.759 C 239.693 218.346,230.041 233.836,225.508 253.185 C 224.916 255.716,224.872 254.932,225.201 247.693 C 226.817 212.136,230.107 194.918,240.357 168.382 C 244.445 157.799,245.940 153.308,247.579 146.689 C 253.190 124.025,253.678 87.637,248.615 69.500 C 238.905 34.722,207.395 9.190,163.967 0.912 C 158.985 -0.037,159.041 -0.114,162.291 3.207 M132.591 12.081 C 128.471 40.839,117.263 70.916,102.367 93.185 C 94.388 105.114,92.087 111.194,91.409 122.148 C 90.439 137.806,97.830 158.939,110.813 177.632 L 113.199 181.067 113.562 178.189 C 115.249 164.827,125.659 144.006,143.967 117.375 C 153.697 103.221,157.344 96.055,160.026 85.818 C 166.484 61.163,158.635 37.728,135.928 13.870 L 132.805 10.589 132.591 12.081 " stroke="none" fill="#d91c3e" fill-rule="evenodd"></path><path id="path7" d="M252.173 99.329 C 252.173 102.200,252.218 103.374,252.273 101.939 C 252.327 100.503,252.327 98.154,252.273 96.719 C 252.218 95.283,252.173 96.458,252.173 99.329 M297.161 133.035 C 297.161 133.609,297.222 133.844,297.297 133.557 C 297.372 133.270,297.372 132.800,297.297 132.513 C 297.222 132.226,297.161 132.461,297.161 133.035 M297.161 138.106 C 297.161 138.680,297.222 138.915,297.297 138.628 C 297.372 138.341,297.372 137.871,297.297 137.584 C 297.222 137.297,297.161 137.532,297.161 138.106 M113.429 180.164 C 113.429 180.902,113.488 181.204,113.559 180.835 C 113.630 180.466,113.630 179.862,113.559 179.493 C 113.488 179.124,113.429 179.426,113.429 180.164 M224.976 252.647 C 224.976 253.221,225.037 253.456,225.112 253.169 C 225.187 252.882,225.187 252.412,225.112 252.125 C 225.037 251.838,224.976 252.073,224.976 252.647 M399.791 315.884 C 399.791 316.786,399.847 317.155,399.915 316.704 C 399.984 316.253,399.984 315.515,399.915 315.063 C 399.847 314.612,399.791 314.981,399.791 315.884 M399.771 334.079 C 399.771 334.653,399.832 334.888,399.907 334.601 C 399.982 334.314,399.982 333.844,399.907 333.557 C 399.832 333.270,399.771 333.505,399.771 334.079 M0.075 352.424 C 0.079 353.080,0.140 353.313,0.211 352.942 C 0.282 352.571,0.280 352.034,0.205 351.749 C 0.130 351.464,0.072 351.767,0.075 352.424 M192.621 504.909 C 192.992 504.980,193.529 504.978,193.814 504.903 C 194.099 504.828,193.796 504.770,193.139 504.773 C 192.483 504.777,192.250 504.838,192.621 504.909 M204.254 504.909 C 204.625 504.980,205.162 504.978,205.447 504.903 C 205.732 504.828,205.429 504.770,204.773 504.773 C 204.116 504.777,203.883 504.838,204.254 504.909 " stroke="none" fill="#da1d40" fill-rule="evenodd"></path><path id="path8" d="M193.370 71.290 C 193.370 72.028,193.428 72.330,193.499 71.961 C 193.570 71.592,193.570 70.988,193.499 70.619 C 193.428 70.250,193.370 70.552,193.370 71.290 M193.370 76.957 C 193.370 77.696,193.428 77.998,193.499 77.629 C 193.570 77.260,193.570 76.655,193.499 76.286 C 193.428 75.917,193.370 76.219,193.370 76.957 M252.126 92.916 C 252.129 93.572,252.190 93.805,252.262 93.434 C 252.333 93.063,252.330 92.526,252.256 92.241 C 252.181 91.956,252.123 92.260,252.126 92.916 M252.146 106.488 C 252.146 107.554,252.200 107.990,252.266 107.457 C 252.333 106.924,252.333 106.051,252.266 105.518 C 252.200 104.985,252.146 105.421,252.146 106.488 M297.181 135.421 C 297.181 136.324,297.237 136.693,297.305 136.242 C 297.374 135.790,297.374 135.052,297.305 134.601 C 297.237 134.150,297.181 134.519,297.181 135.421 M344.028 170.172 C 344.027 171.648,344.078 172.290,344.140 171.597 C 344.203 170.905,344.204 169.697,344.142 168.913 C 344.080 168.129,344.029 168.695,344.028 170.172 M399.783 313.199 C 399.783 313.937,399.841 314.239,399.912 313.870 C 399.983 313.501,399.983 312.897,399.912 312.528 C 399.841 312.159,399.783 312.461,399.783 313.199 " stroke="none" fill="#d71c3e" fill-rule="evenodd"></path><path id="path9" d="" stroke="none" fill="#db1c39" fill-rule="evenodd"></path><path id="path10" d="" stroke="none" fill="#da1d3e" fill-rule="evenodd"></path><path id="path11" d="" stroke="none" fill="#da1c3c" fill-rule="evenodd"></path><path id="path12" d="M82.327 177.629 C 83.218 178.531,84.014 179.269,84.096 179.269 C 84.178 179.269,83.516 178.531,82.625 177.629 C 81.734 176.726,80.938 175.988,80.856 175.988 C 80.774 175.988,81.436 176.726,82.327 177.629 M352.117 443.326 L 350.037 445.488 352.200 443.408 C 354.208 441.477,354.499 441.163,354.280 441.163 C 354.234 441.163,353.261 442.136,352.117 443.326 " stroke="none" fill="#db1f3e" fill-rule="evenodd"></path><path id="path13" d="M135.863 189.485 L 132.886 192.543 135.943 189.566 C 137.625 187.928,139.001 186.552,139.001 186.508 C 139.001 186.292,138.628 186.646,135.863 189.485 M123.632 201.119 L 121.253 203.579 123.714 201.200 C 125.067 199.892,126.174 198.784,126.174 198.739 C 126.174 198.522,125.842 198.833,123.632 201.119 M370.321 207.308 C 371.129 208.128,371.857 208.799,371.939 208.799 C 372.021 208.799,371.427 208.128,370.619 207.308 C 369.811 206.488,369.083 205.817,369.001 205.817 C 368.919 205.817,369.513 206.488,370.321 207.308 M350.921 241.387 L 349.441 242.953 351.007 241.473 C 351.868 240.659,352.573 239.954,352.573 239.907 C 352.573 239.684,352.296 239.932,350.921 241.387 " stroke="none" fill="#db1d40" fill-rule="evenodd"></path><path id="path14" d="" stroke="none" fill="#dd1940" fill-rule="evenodd"></path><path id="path15" d="M135.714 189.336 L 132.886 192.245 135.794 189.417 C 137.394 187.861,138.702 186.553,138.702 186.509 C 138.702 186.292,138.340 186.635,135.714 189.336 M123.483 200.969 L 120.955 203.579 123.565 201.051 C 125.989 198.702,126.310 198.359,126.093 198.359 C 126.049 198.359,124.874 199.534,123.483 200.969 M370.619 207.308 C 371.427 208.128,372.155 208.799,372.237 208.799 C 372.319 208.799,371.725 208.128,370.917 207.308 C 370.109 206.488,369.381 205.817,369.299 205.817 C 369.217 205.817,369.811 206.488,370.619 207.308 M350.783 241.163 C 350.058 241.902,349.533 242.506,349.615 242.506 C 349.697 242.506,350.357 241.902,351.081 241.163 C 351.806 240.425,352.332 239.821,352.249 239.821 C 352.167 239.821,351.508 240.425,350.783 241.163 " stroke="none" fill="#e71838" fill-rule="evenodd"></path></g></svg>